<svg 
 xmlns="http://www.w3.org/2000/svg"
 xmlns:xlink="http://www.w3.org/1999/xlink"
 width="1709px" height="1776px">
<path fill-rule="evenodd"  stroke="rgb(255, 255, 255)" stroke-width="50px" stroke-linecap="butt" stroke-linejoin="round" fill="rgb(255, 255, 255)"
 d="M1633.556,1545.219 L1499.661,1679.113 L1102.557,1282.008 L1102.474,1282.091 L968.579,1148.197 L968.662,1148.114 L968.596,1148.048 L1102.491,1014.154 L1102.557,1014.220 L1499.644,617.132 L1633.539,751.026 L1236.451,1148.114 L1633.556,1545.219 ZM717.579,898.197 L1499.644,116.132 L1633.539,250.026 L851.474,1032.091 L717.579,898.197 ZM875.500,235.1000 C523.419,235.1000 238.000,522.314 238.000,875.500 C238.000,1228.686 523.419,1515.000 875.500,1515.000 C937.397,1515.000 997.228,1506.140 1053.816,1489.634 L1198.752,1635.298 C1099.475,1677.589 990.223,1701.000 875.500,1701.000 C419.589,1701.000 50.000,1331.411 50.000,875.500 C50.000,419.589 419.589,49.1000 875.500,49.1000 C1005.634,49.1000 1128.728,80.125 1238.208,133.762 L1095.976,275.285 C1027.268,249.879 953.001,235.1000 875.500,235.1000 Z"/>
</svg>