<svg 
 xmlns="http://www.w3.org/2000/svg"
 xmlns:xlink="http://www.w3.org/1999/xlink"
 width="250px" height="55px">
<path fill-rule="evenodd"  fill="rgb(255, 255, 255)"
 d="M248.328,7.490 C247.583,8.247 246.662,8.625 245.563,8.625 C244.562,8.625 243.677,8.229 242.908,7.435 C242.139,6.642 241.754,5.720 241.754,4.670 C241.754,3.621 242.139,2.705 242.908,1.924 C243.677,1.143 244.562,0.752 245.563,0.752 C246.637,0.752 247.553,1.136 248.310,1.905 C249.066,2.674 249.445,3.596 249.445,4.670 C249.445,5.793 249.072,6.734 248.328,7.490 ZM248.346,53.340 L242.633,53.340 L242.633,20.124 L231.391,20.124 L231.391,15.180 L248.346,15.180 L248.346,53.340 ZM190.961,23.786 L210.443,23.786 L210.443,29.023 L190.961,29.023 L190.961,53.340 L184.955,53.340 L184.955,1.667 L212.348,1.667 L212.348,6.904 L190.961,6.904 L190.961,23.786 ZM149.469,6.611 L139.508,6.611 L139.508,1.667 L155.182,1.667 L155.182,48.396 L165.070,48.396 L165.070,53.340 L149.469,53.340 L149.469,6.611 ZM104.462,6.611 L94.501,6.611 L94.501,1.667 L110.175,1.667 L110.175,48.396 L120.063,48.396 L120.063,53.340 L104.462,53.340 L104.462,6.611 ZM56.543,45.137 C59.045,47.944 62.115,49.348 65.753,49.348 C69.220,49.348 72.797,48.725 76.483,47.480 L77.472,52.058 C74.103,53.571 70.172,54.328 65.680,54.328 C60.016,54.328 55.450,52.510 51.984,48.872 C48.517,45.234 46.784,40.327 46.784,34.150 C46.784,28.096 48.340,23.268 51.453,19.667 C54.566,16.066 58.588,14.265 63.520,14.265 C67.914,14.265 71.588,15.937 74.542,19.282 C77.496,22.627 78.974,27.082 78.974,32.649 L78.974,34.443 L52.790,34.443 C52.790,38.764 54.040,42.329 56.543,45.137 ZM72.748,29.792 C72.748,26.814 71.820,24.305 69.965,22.267 C68.109,20.228 66.034,19.209 63.739,19.209 C60.785,19.209 58.338,20.186 56.397,22.138 C54.456,24.092 53.375,26.643 53.156,29.792 L72.748,29.792 ZM20.673,49.055 C24.652,49.055 28.729,47.834 32.904,45.393 L34.772,50.117 C30.719,52.925 26.020,54.328 20.673,54.328 C13.983,54.328 8.899,52.034 5.420,47.444 C1.941,42.854 0.202,36.214 0.202,27.522 C0.202,19.124 1.886,12.550 5.255,7.801 C8.625,3.053 13.763,0.679 20.673,0.679 C23.163,0.679 25.629,0.996 28.070,1.631 C30.511,2.266 32.477,3.108 33.966,4.158 L31.989,8.882 C28.546,6.929 24.774,5.952 20.673,5.952 C15.912,5.952 12.372,7.679 10.053,11.134 C7.733,14.589 6.574,20.051 6.574,27.522 C6.574,41.877 11.273,49.055 20.673,49.055 Z"/>
</svg>